<?xml version="1.0" encoding="UTF-8" standalone="no"?>
<!DOCTYPE svg PUBLIC "-//W3C//DTD SVG 1.1//EN"
 "http://www.w3.org/Graphics/SVG/1.1/DTD/svg11.dtd">
<!-- Generated by graphviz version 2.44.0 ()
 -->
<!-- Title: realization::Tshirt_Realization Pages: 1 -->
<svg width="262pt" height="485pt"
 viewBox="0.00 0.00 262.00 485.00" xmlns="http://www.w3.org/2000/svg" xmlns:xlink="http://www.w3.org/1999/xlink">
<g id="graph0" class="graph" transform="scale(1 1) rotate(0) translate(4 481)">
<title>realization::Tshirt_Realization</title>
<polygon fill="white" stroke="transparent" points="-4,4 -4,-481 258,-481 258,4 -4,4"/>
<!-- Node1 -->
<g id="node1" class="node">
<title>Node1</title>
<g id="a_node1"><a xlink:title=" ">
<polygon fill="#bfbfbf" stroke="black" points="75.5,-0.5 75.5,-200.5 210.5,-200.5 210.5,-0.5 75.5,-0.5"/>
<text text-anchor="start" x="83.5" y="-188.5" font-family="Helvetica,sans-Serif" font-size="10.00">realization::Tshirt</text>
<text text-anchor="middle" x="143" y="-177.5" font-family="Helvetica,sans-Serif" font-size="10.00">_Realization</text>
<polyline fill="none" stroke="black" points="75.5,-170.5 210.5,-170.5 "/>
<text text-anchor="start" x="83.5" y="-158.5" font-family="Helvetica,sans-Serif" font-size="10.00">&#45; catchment_id</text>
<text text-anchor="start" x="83.5" y="-147.5" font-family="Helvetica,sans-Serif" font-size="10.00">&#45; state</text>
<text text-anchor="start" x="83.5" y="-136.5" font-family="Helvetica,sans-Serif" font-size="10.00">&#45; fluxes</text>
<text text-anchor="start" x="83.5" y="-125.5" font-family="Helvetica,sans-Serif" font-size="10.00">&#45; cascade_backing_storage</text>
<text text-anchor="start" x="83.5" y="-114.5" font-family="Helvetica,sans-Serif" font-size="10.00">&#45; params</text>
<text text-anchor="start" x="83.5" y="-103.5" font-family="Helvetica,sans-Serif" font-size="10.00">&#45; model</text>
<text text-anchor="start" x="83.5" y="-92.5" font-family="Helvetica,sans-Serif" font-size="10.00">&#45; giuh_kernel</text>
<text text-anchor="start" x="83.5" y="-81.5" font-family="Helvetica,sans-Serif" font-size="10.00">&#45; dt</text>
<polyline fill="none" stroke="black" points="75.5,-74.5 210.5,-74.5 "/>
<text text-anchor="start" x="83.5" y="-62.5" font-family="Helvetica,sans-Serif" font-size="10.00">+ Tshirt_Realization()</text>
<text text-anchor="start" x="83.5" y="-51.5" font-family="Helvetica,sans-Serif" font-size="10.00">+ Tshirt_Realization()</text>
<text text-anchor="start" x="83.5" y="-40.5" font-family="Helvetica,sans-Serif" font-size="10.00">+ ~Tshirt_Realization()</text>
<text text-anchor="start" x="83.5" y="-29.5" font-family="Helvetica,sans-Serif" font-size="10.00">+ get_response()</text>
<text text-anchor="start" x="83.5" y="-18.5" font-family="Helvetica,sans-Serif" font-size="10.00">+ get_response()</text>
<text text-anchor="start" x="83.5" y="-7.5" font-family="Helvetica,sans-Serif" font-size="10.00">+ add_time()</text>
</a>
</g>
</g>
<!-- Node2 -->
<g id="node2" class="node">
<title>Node2</title>
<g id="a_node2"><a xlink:href="class_h_y___catchment_area.html" target="_top" xlink:title=" ">
<polygon fill="white" stroke="black" points="81.5,-237.5 81.5,-316.5 204.5,-316.5 204.5,-237.5 81.5,-237.5"/>
<text text-anchor="middle" x="143" y="-304.5" font-family="Helvetica,sans-Serif" font-size="10.00">HY_CatchmentArea</text>
<polyline fill="none" stroke="black" points="81.5,-297.5 204.5,-297.5 "/>
<text text-anchor="start" x="89.5" y="-285.5" font-family="Helvetica,sans-Serif" font-size="10.00"># bounds</text>
<polyline fill="none" stroke="black" points="81.5,-278.5 204.5,-278.5 "/>
<text text-anchor="start" x="89.5" y="-266.5" font-family="Helvetica,sans-Serif" font-size="10.00">+ HY_CatchmentArea()</text>
<text text-anchor="start" x="89.5" y="-255.5" font-family="Helvetica,sans-Serif" font-size="10.00">+ HY_CatchmentArea()</text>
<text text-anchor="start" x="89.5" y="-244.5" font-family="Helvetica,sans-Serif" font-size="10.00">+ ~HY_CatchmentArea()</text>
</a>
</g>
</g>
<!-- Node2&#45;&gt;Node1 -->
<g id="edge1" class="edge">
<title>Node2&#45;&gt;Node1</title>
<path fill="none" stroke="midnightblue" d="M143,-227.06C143,-218.74 143,-209.83 143,-200.74"/>
<polygon fill="none" stroke="midnightblue" points="139.5,-227.27 143,-237.27 146.5,-227.27 139.5,-227.27"/>
</g>
<!-- Node3 -->
<g id="node3" class="node">
<title>Node3</title>
<g id="a_node3"><a xlink:href="class_h_y___catchment_realization.html" target="_top" xlink:title=" ">
<polygon fill="white" stroke="black" points="0,-353.5 0,-476.5 150,-476.5 150,-353.5 0,-353.5"/>
<text text-anchor="middle" x="75" y="-464.5" font-family="Helvetica,sans-Serif" font-size="10.00">HY_CatchmentRealization</text>
<polyline fill="none" stroke="black" points="0,-457.5 150,-457.5 "/>
<text text-anchor="start" x="8" y="-445.5" font-family="Helvetica,sans-Serif" font-size="10.00"># realized_catchment</text>
<text text-anchor="start" x="8" y="-434.5" font-family="Helvetica,sans-Serif" font-size="10.00"># id_number</text>
<text text-anchor="start" x="8" y="-423.5" font-family="Helvetica,sans-Serif" font-size="10.00"># id</text>
<text text-anchor="start" x="8" y="-412.5" font-family="Helvetica,sans-Serif" font-size="10.00"># forcing</text>
<polyline fill="none" stroke="black" points="0,-405.5 150,-405.5 "/>
<text text-anchor="start" x="8" y="-393.5" font-family="Helvetica,sans-Serif" font-size="10.00">+ HY_CatchmentRealization()</text>
<text text-anchor="start" x="8" y="-382.5" font-family="Helvetica,sans-Serif" font-size="10.00">+ HY_CatchmentRealization()</text>
<text text-anchor="start" x="8" y="-371.5" font-family="Helvetica,sans-Serif" font-size="10.00">+ ~HY_CatchmentRealization()</text>
<text text-anchor="start" x="8" y="-360.5" font-family="Helvetica,sans-Serif" font-size="10.00">+ get_response()</text>
</a>
</g>
</g>
<!-- Node3&#45;&gt;Node2 -->
<g id="edge2" class="edge">
<title>Node3&#45;&gt;Node2</title>
<path fill="none" stroke="midnightblue" d="M109.96,-344.08C114.7,-334.61 119.41,-325.18 123.73,-316.54"/>
<polygon fill="none" stroke="midnightblue" points="106.76,-342.65 105.42,-353.16 113.02,-345.78 106.76,-342.65"/>
</g>
<!-- Node4 -->
<g id="node4" class="node">
<title>Node4</title>
<g id="a_node4"><a xlink:href="class_g_m___object.html" target="_top" xlink:title=" ">
<polygon fill="white" stroke="black" points="168,-381 168,-449 254,-449 254,-381 168,-381"/>
<text text-anchor="middle" x="211" y="-437" font-family="Helvetica,sans-Serif" font-size="10.00">GM_Object</text>
<polyline fill="none" stroke="black" points="168,-430 254,-430 "/>
<text text-anchor="middle" x="211" y="-418" font-family="Helvetica,sans-Serif" font-size="10.00"> </text>
<polyline fill="none" stroke="black" points="168,-411 254,-411 "/>
<text text-anchor="start" x="176" y="-399" font-family="Helvetica,sans-Serif" font-size="10.00">+ GM_Object()</text>
<text text-anchor="start" x="176" y="-388" font-family="Helvetica,sans-Serif" font-size="10.00">+ ~GM_Object()</text>
</a>
</g>
</g>
<!-- Node4&#45;&gt;Node2 -->
<g id="edge3" class="edge">
<title>Node4&#45;&gt;Node2</title>
<path fill="none" stroke="midnightblue" d="M189.66,-371.32C180.92,-353.84 170.88,-333.76 162.35,-316.71"/>
<polygon fill="none" stroke="midnightblue" points="186.76,-373.35 194.37,-380.73 193.02,-370.22 186.76,-373.35"/>
</g>
</g>
</svg>
