<?xml version="1.0" encoding="UTF-8" standalone="no"?>
<!DOCTYPE svg PUBLIC "-//W3C//DTD SVG 1.1//EN"
 "http://www.w3.org/Graphics/SVG/1.1/DTD/svg11.dtd">
<!-- Generated by graphviz version 2.44.0 ()
 -->
<!-- Title: giuh::giuh_kernel_impl Pages: 1 -->
<!--zoomable 645 -->
<svg id="main" version="1.1" xmlns="http://www.w3.org/2000/svg" xmlns:xlink="http://www.w3.org/1999/xlink" xml:space="preserve" onload="init(evt)">
<style type="text/css"><![CDATA[
.edge:hover path { stroke: red; }
.edge:hover polygon { stroke: red; fill: red; }
]]></style>
<script type="text/javascript"><![CDATA[
var edges = document.getElementsByTagName('g');
if (edges && edges.length) {
  for (var i=0;i<edges.length;i++) {
    if (edges[i].id.substr(0,4)=='edge') {
      edges[i].setAttribute('class','edge');
    }
  }
}
]]></script>
        <defs>
                <circle id="rim" cx="0" cy="0" r="7"/>
                <circle id="rim2" cx="0" cy="0" r="3.5"/>
                <g id="zoomPlus">
                        <use xlink:href="#rim" fill="#404040">
                                <set attributeName="fill" to="#808080" begin="zoomplus.mouseover" end="zoomplus.mouseout"/>
                        </use>
                        <path d="M-4,0h8M0,-4v8" fill="none" stroke="white" stroke-width="1.5" pointer-events="none"/>
                </g>
                <g id="zoomMin">
                        <use xlink:href="#rim" fill="#404040">
                                <set attributeName="fill" to="#808080" begin="zoomminus.mouseover" end="zoomminus.mouseout"/>
                        </use>
                        <path d="M-4,0h8" fill="none" stroke="white" stroke-width="1.5" pointer-events="none"/>
                </g>
                <g id="dirArrow">
                        <path fill="none" stroke="white" stroke-width="1.5" d="M0,-3.0v7 M-2.5,-0.5L0,-3.0L2.5,-0.5"/>
                </g>
               <g id="resetDef">
                       <use xlink:href="#rim2" fill="#404040">
                               <set attributeName="fill" to="#808080" begin="reset.mouseover" end="reset.mouseout"/>
                       </use>
               </g>
        </defs>

<script type="text/javascript">
var viewWidth = 641;
var viewHeight = 645;
var sectionId = 'dynsection-1';
</script>
<script xlink:href="svgpan.js"/>
<svg id="graph" class="graph">
<g id="viewport">
<title>giuh::giuh_kernel_impl</title>
<polygon fill="white" stroke="transparent" points="-4,4 -4,-641 636.5,-641 636.5,4 -4,4"/>
<!-- Node1 -->
<g id="node1" class="node">
<title>Node1</title>
<g id="a_node1"><a xlink:title="A concrete implementation of a GIUH calculation kernel.">
<polygon fill="#bfbfbf" stroke="black" points="162.5,-0.5 162.5,-145.5 305.5,-145.5 305.5,-0.5 162.5,-0.5"/>
<text text-anchor="middle" x="234" y="-133.5" font-family="Helvetica,sans-Serif" font-size="10.00">giuh::giuh_kernel_impl</text>
<polyline fill="none" stroke="black" points="162.5,-126.5 305.5,-126.5 "/>
<text text-anchor="middle" x="234" y="-114.5" font-family="Helvetica,sans-Serif" font-size="10.00"> </text>
<polyline fill="none" stroke="black" points="162.5,-107.5 305.5,-107.5 "/>
<text text-anchor="start" x="170.5" y="-95.5" font-family="Helvetica,sans-Serif" font-size="10.00">+ giuh_kernel_impl()</text>
<text text-anchor="start" x="170.5" y="-84.5" font-family="Helvetica,sans-Serif" font-size="10.00">+ giuh_kernel_impl()</text>
<text text-anchor="start" x="170.5" y="-73.5" font-family="Helvetica,sans-Serif" font-size="10.00">+ ~giuh_kernel_impl()</text>
<text text-anchor="start" x="170.5" y="-62.5" font-family="Helvetica,sans-Serif" font-size="10.00">+ calc_giuh_output()</text>
<text text-anchor="start" x="170.5" y="-51.5" font-family="Helvetica,sans-Serif" font-size="10.00">+ set_interpolation_regularity</text>
<text text-anchor="start" x="170.5" y="-40.5" font-family="Helvetica,sans-Serif" font-size="10.00">_seconds()</text>
<text text-anchor="start" x="170.5" y="-29.5" font-family="Helvetica,sans-Serif" font-size="10.00">+ make_from_incremental</text>
<text text-anchor="start" x="170.5" y="-18.5" font-family="Helvetica,sans-Serif" font-size="10.00">_runoffs()</text>
<text text-anchor="start" x="170.5" y="-7.5" font-family="Helvetica,sans-Serif" font-size="10.00">&#45; interpolate_regularized_cdf()</text>
</a>
</g>
</g>
<!-- Node2 -->
<g id="node2" class="node">
<title>Node2</title>
<g id="a_node2"><a xlink:href="classgiuh_1_1giuh__kernel.html" target="_top" xlink:title="Pseudo&#45;abstract class declaring the interface for a GIUH calculation kernel for a catchment.">
<polygon fill="white" stroke="black" points="0,-248.5 0,-404.5 140,-404.5 140,-248.5 0,-248.5"/>
<text text-anchor="middle" x="70" y="-392.5" font-family="Helvetica,sans-Serif" font-size="10.00">giuh::giuh_kernel</text>
<polyline fill="none" stroke="black" points="0,-385.5 140,-385.5 "/>
<text text-anchor="start" x="8" y="-373.5" font-family="Helvetica,sans-Serif" font-size="10.00">&#45; interpolation_regularity</text>
<text text-anchor="start" x="8" y="-362.5" font-family="Helvetica,sans-Serif" font-size="10.00">_seconds</text>
<polyline fill="none" stroke="black" points="0,-355.5 140,-355.5 "/>
<text text-anchor="start" x="8" y="-343.5" font-family="Helvetica,sans-Serif" font-size="10.00">+ giuh_kernel()</text>
<text text-anchor="start" x="8" y="-332.5" font-family="Helvetica,sans-Serif" font-size="10.00">+ giuh_kernel()</text>
<text text-anchor="start" x="8" y="-321.5" font-family="Helvetica,sans-Serif" font-size="10.00">+ calc_giuh_output()</text>
<text text-anchor="start" x="8" y="-310.5" font-family="Helvetica,sans-Serif" font-size="10.00">+ get_catchment_id()</text>
<text text-anchor="start" x="8" y="-299.5" font-family="Helvetica,sans-Serif" font-size="10.00">+ get_comid()</text>
<text text-anchor="start" x="8" y="-288.5" font-family="Helvetica,sans-Serif" font-size="10.00">+ get_interpolation_regularity</text>
<text text-anchor="start" x="8" y="-277.5" font-family="Helvetica,sans-Serif" font-size="10.00">_seconds()</text>
<text text-anchor="start" x="8" y="-266.5" font-family="Helvetica,sans-Serif" font-size="10.00">+ set_interpolation_regularity</text>
<text text-anchor="start" x="8" y="-255.5" font-family="Helvetica,sans-Serif" font-size="10.00">_seconds()</text>
</a>
</g>
</g>
<!-- Node2&#45;&gt;Node1 -->
<g id="edge1" class="edge">
<title>Node2&#45;&gt;Node1</title>
<path fill="none" stroke="midnightblue" d="M118.58,-239.75C133.27,-214.96 149.81,-188.1 166,-164 170.04,-157.99 174.34,-151.83 178.72,-145.7"/>
<polygon fill="none" stroke="midnightblue" points="115.53,-238.04 113.47,-248.43 121.56,-241.59 115.53,-238.04"/>
</g>
<!-- Node3 -->
<g id="node3" class="node">
<title>Node3</title>
<g id="a_node3"><a xlink:title="STL class.">
<polygon fill="white" stroke="#bfbfbf" points="40.5,-463.5 40.5,-520.5 99.5,-520.5 99.5,-463.5 40.5,-463.5"/>
<text text-anchor="middle" x="70" y="-508.5" font-family="Helvetica,sans-Serif" font-size="10.00">std::string</text>
<polyline fill="none" stroke="#bfbfbf" points="40.5,-501.5 99.5,-501.5 "/>
<text text-anchor="middle" x="70" y="-489.5" font-family="Helvetica,sans-Serif" font-size="10.00"> </text>
<polyline fill="none" stroke="#bfbfbf" points="40.5,-482.5 99.5,-482.5 "/>
<text text-anchor="middle" x="70" y="-470.5" font-family="Helvetica,sans-Serif" font-size="10.00"> </text>
</a>
</g>
</g>
<!-- Node3&#45;&gt;Node2 -->
<g id="edge2" class="edge">
<title>Node3&#45;&gt;Node2</title>
<path fill="none" stroke="#404040" d="M70,-463.26C70,-450.21 70,-433.84 70,-417.02"/>
<polygon fill="none" stroke="#404040" points="70,-416.74 66,-410.74 70,-404.74 74,-410.74 70,-416.74"/>
<text text-anchor="middle" x="102" y="-437" font-family="Helvetica,sans-Serif" font-size="10.00"> &#45;catchment_id</text>
<text text-anchor="middle" x="102" y="-426" font-family="Helvetica,sans-Serif" font-size="10.00">&#45;comid</text>
</g>
<!-- Node4 -->
<g id="node4" class="node">
<title>Node4</title>
<g id="a_node4"><a xlink:title="STL class.">
<polygon fill="white" stroke="#bfbfbf" points="23.5,-568.5 23.5,-636.5 116.5,-636.5 116.5,-568.5 23.5,-568.5"/>
<text text-anchor="start" x="31.5" y="-624.5" font-family="Helvetica,sans-Serif" font-size="10.00">std::basic_string&lt;</text>
<text text-anchor="middle" x="70" y="-613.5" font-family="Helvetica,sans-Serif" font-size="10.00"> char &gt;</text>
<polyline fill="none" stroke="#bfbfbf" points="23.5,-606.5 116.5,-606.5 "/>
<text text-anchor="middle" x="70" y="-594.5" font-family="Helvetica,sans-Serif" font-size="10.00"> </text>
<polyline fill="none" stroke="#bfbfbf" points="23.5,-587.5 116.5,-587.5 "/>
<text text-anchor="middle" x="70" y="-575.5" font-family="Helvetica,sans-Serif" font-size="10.00"> </text>
</a>
</g>
</g>
<!-- Node4&#45;&gt;Node3 -->
<g id="edge3" class="edge">
<title>Node4&#45;&gt;Node3</title>
<path fill="none" stroke="midnightblue" d="M70,-558.06C70,-545.51 70,-532.15 70,-520.83"/>
<polygon fill="none" stroke="midnightblue" points="66.5,-558.36 70,-568.36 73.5,-558.36 66.5,-558.36"/>
</g>
<!-- Node5 -->
<g id="node5" class="node">
<title>Node5</title>
<g id="a_node5"><a xlink:title=" ">
<polygon fill="white" stroke="#bfbfbf" points="158.5,-298 158.5,-355 247.5,-355 247.5,-298 158.5,-298"/>
<text text-anchor="middle" x="203" y="-343" font-family="Helvetica,sans-Serif" font-size="10.00">std::vector&lt; int &gt;</text>
<polyline fill="none" stroke="#bfbfbf" points="158.5,-336 247.5,-336 "/>
<text text-anchor="start" x="166.5" y="-324" font-family="Helvetica,sans-Serif" font-size="10.00">+ elements</text>
<polyline fill="none" stroke="#bfbfbf" points="158.5,-317 247.5,-317 "/>
<text text-anchor="middle" x="203" y="-305" font-family="Helvetica,sans-Serif" font-size="10.00"> </text>
</a>
</g>
</g>
<!-- Node5&#45;&gt;Node1 -->
<g id="edge4" class="edge">
<title>Node5&#45;&gt;Node1</title>
<path fill="none" stroke="#404040" d="M190.62,-297.9C177.75,-265.37 161.28,-209.95 175,-164 175.72,-161.59 176.53,-159.18 177.41,-156.78"/>
<polygon fill="none" stroke="#404040" points="177.43,-156.73 176.06,-149.66 182.07,-145.67 183.44,-152.74 177.43,-156.73"/>
<text text-anchor="start" x="175" y="-200" font-family="Helvetica,sans-Serif" font-size="10.00"> &#45;interpolated_ordinate</text>
<text text-anchor="middle" x="223" y="-189" font-family="Helvetica,sans-Serif" font-size="10.00">_times_seconds</text>
</g>
<!-- Node6 -->
<g id="node6" class="node">
<title>Node6</title>
<g id="a_node6"><a xlink:title="STL class.">
<polygon fill="white" stroke="#bfbfbf" points="277,-463.5 277,-520.5 361,-520.5 361,-463.5 277,-463.5"/>
<text text-anchor="middle" x="319" y="-508.5" font-family="Helvetica,sans-Serif" font-size="10.00">std::vector&lt; T &gt;</text>
<polyline fill="none" stroke="#bfbfbf" points="277,-501.5 361,-501.5 "/>
<text text-anchor="middle" x="319" y="-489.5" font-family="Helvetica,sans-Serif" font-size="10.00"> </text>
<polyline fill="none" stroke="#bfbfbf" points="277,-482.5 361,-482.5 "/>
<text text-anchor="middle" x="319" y="-470.5" font-family="Helvetica,sans-Serif" font-size="10.00"> </text>
</a>
</g>
</g>
<!-- Node6&#45;&gt;Node5 -->
<g id="edge5" class="edge">
<title>Node6&#45;&gt;Node5</title>
<path fill="none" stroke="orange" d="M292.33,-454.98C289.85,-451.61 287.37,-448.24 285,-445 272.03,-427.28 268.64,-422.95 256,-405 244.46,-388.61 231.77,-370.08 221.7,-355.25"/>
<polygon fill="orange" stroke="orange" points="289.71,-457.33 298.46,-463.3 295.34,-453.17 289.71,-457.33"/>
<text text-anchor="middle" x="300" y="-431.5" font-family="Helvetica,sans-Serif" font-size="10.00"> &lt; int &gt;</text>
</g>
<!-- Node11 -->
<g id="node11" class="node">
<title>Node11</title>
<g id="a_node11"><a xlink:title=" ">
<polygon fill="white" stroke="#bfbfbf" points="265.5,-298 265.5,-355 372.5,-355 372.5,-298 265.5,-298"/>
<text text-anchor="middle" x="319" y="-343" font-family="Helvetica,sans-Serif" font-size="10.00">std::vector&lt; double &gt;</text>
<polyline fill="none" stroke="#bfbfbf" points="265.5,-336 372.5,-336 "/>
<text text-anchor="start" x="273.5" y="-324" font-family="Helvetica,sans-Serif" font-size="10.00">+ elements</text>
<polyline fill="none" stroke="#bfbfbf" points="265.5,-317 372.5,-317 "/>
<text text-anchor="middle" x="319" y="-305" font-family="Helvetica,sans-Serif" font-size="10.00"> </text>
</a>
</g>
</g>
<!-- Node6&#45;&gt;Node11 -->
<g id="edge13" class="edge">
<title>Node6&#45;&gt;Node11</title>
<path fill="none" stroke="orange" d="M319,-453.17C319,-423.2 319,-382.03 319,-355.1"/>
<polygon fill="orange" stroke="orange" points="315.5,-453.26 319,-463.26 322.5,-453.26 315.5,-453.26"/>
<text text-anchor="middle" x="343" y="-431.5" font-family="Helvetica,sans-Serif" font-size="10.00"> &lt; double &gt;</text>
</g>
<!-- Node7 -->
<g id="node7" class="node">
<title>Node7</title>
<g id="a_node7"><a xlink:title=" ">
<polygon fill="white" stroke="#bfbfbf" points="351.5,-574 351.5,-631 380.5,-631 380.5,-574 351.5,-574"/>
<text text-anchor="middle" x="366" y="-619" font-family="Helvetica,sans-Serif" font-size="10.00">T</text>
<polyline fill="none" stroke="#bfbfbf" points="351.5,-612 380.5,-612 "/>
<text text-anchor="middle" x="366" y="-600" font-family="Helvetica,sans-Serif" font-size="10.00"> </text>
<polyline fill="none" stroke="#bfbfbf" points="351.5,-593 380.5,-593 "/>
<text text-anchor="middle" x="366" y="-581" font-family="Helvetica,sans-Serif" font-size="10.00"> </text>
</a>
</g>
</g>
<!-- Node7&#45;&gt;Node6 -->
<g id="edge6" class="edge">
<title>Node7&#45;&gt;Node6</title>
<path fill="none" stroke="#404040" d="M354.02,-573.84C348.49,-561.09 341.84,-545.73 335.82,-531.84"/>
<polygon fill="none" stroke="#404040" points="335.73,-531.62 329.67,-527.7 330.96,-520.61 337.02,-524.53 335.73,-531.62"/>
<text text-anchor="middle" x="367.5" y="-542" font-family="Helvetica,sans-Serif" font-size="10.00"> +elements</text>
</g>
<!-- Node10 -->
<g id="node10" class="node">
<title>Node10</title>
<g id="a_node10"><a xlink:title="STL class.">
<polygon fill="white" stroke="#bfbfbf" points="382.5,-463.5 382.5,-520.5 485.5,-520.5 485.5,-463.5 382.5,-463.5"/>
<text text-anchor="middle" x="434" y="-508.5" font-family="Helvetica,sans-Serif" font-size="10.00">std::shared_ptr&lt; T &gt;</text>
<polyline fill="none" stroke="#bfbfbf" points="382.5,-501.5 485.5,-501.5 "/>
<text text-anchor="middle" x="434" y="-489.5" font-family="Helvetica,sans-Serif" font-size="10.00"> </text>
<polyline fill="none" stroke="#bfbfbf" points="382.5,-482.5 485.5,-482.5 "/>
<text text-anchor="start" x="390.5" y="-470.5" font-family="Helvetica,sans-Serif" font-size="10.00">+ operator&#45;&gt;()</text>
</a>
</g>
</g>
<!-- Node7&#45;&gt;Node10 -->
<g id="edge11" class="edge">
<title>Node7&#45;&gt;Node10</title>
<path fill="none" stroke="#404040" d="M380.59,-578.22C389.15,-564.56 400.18,-546.96 409.99,-531.31"/>
<polygon fill="none" stroke="#404040" points="410.17,-531.02 409.97,-523.81 416.54,-520.85 416.75,-528.06 410.17,-531.02"/>
<text text-anchor="middle" x="415" y="-542" font-family="Helvetica,sans-Serif" font-size="10.00"> +ptr</text>
</g>
<!-- Node8 -->
<g id="node8" class="node">
<title>Node8</title>
<g id="a_node8"><a xlink:title=" ">
<polygon fill="white" stroke="#bfbfbf" points="429.5,-292.5 429.5,-360.5 536.5,-360.5 536.5,-292.5 429.5,-292.5"/>
<text text-anchor="start" x="437.5" y="-348.5" font-family="Helvetica,sans-Serif" font-size="10.00">std::shared_ptr&lt; giuh</text>
<text text-anchor="middle" x="483" y="-337.5" font-family="Helvetica,sans-Serif" font-size="10.00">::giuh_carry_over &gt;</text>
<polyline fill="none" stroke="#bfbfbf" points="429.5,-330.5 536.5,-330.5 "/>
<text text-anchor="middle" x="483" y="-318.5" font-family="Helvetica,sans-Serif" font-size="10.00"> </text>
<polyline fill="none" stroke="#bfbfbf" points="429.5,-311.5 536.5,-311.5 "/>
<text text-anchor="start" x="437.5" y="-299.5" font-family="Helvetica,sans-Serif" font-size="10.00">+ operator&#45;&gt;()</text>
</a>
</g>
</g>
<!-- Node8&#45;&gt;Node1 -->
<g id="edge7" class="edge">
<title>Node8&#45;&gt;Node1</title>
<path fill="none" stroke="#404040" d="M458.48,-292.37C446.2,-274.59 431.88,-251.87 422,-230 409.43,-202.18 422.21,-187.72 403,-164 380.73,-136.51 347.77,-116.32 316.85,-102.12"/>
<polygon fill="none" stroke="#404040" points="316.56,-101.99 309.46,-103.23 305.58,-97.15 312.68,-95.91 316.56,-101.99"/>
<text text-anchor="middle" x="472" y="-194.5" font-family="Helvetica,sans-Serif" font-size="10.00"> &#45;carry_overs_list_head</text>
</g>
<!-- Node9 -->
<g id="node9" class="node">
<title>Node9</title>
<g id="a_node9"><a xlink:href="structgiuh_1_1giuh__carry__over.html" target="_top" xlink:title=" ">
<polygon fill="white" stroke="black" points="513.5,-33.5 513.5,-112.5 632.5,-112.5 632.5,-33.5 513.5,-33.5"/>
<text text-anchor="middle" x="573" y="-100.5" font-family="Helvetica,sans-Serif" font-size="10.00">giuh::giuh_carry_over</text>
<polyline fill="none" stroke="black" points="513.5,-93.5 632.5,-93.5 "/>
<text text-anchor="start" x="521.5" y="-81.5" font-family="Helvetica,sans-Serif" font-size="10.00">+ original_input_amount</text>
<text text-anchor="start" x="521.5" y="-70.5" font-family="Helvetica,sans-Serif" font-size="10.00">+ last_outputted_cdf</text>
<text text-anchor="start" x="521.5" y="-59.5" font-family="Helvetica,sans-Serif" font-size="10.00">_index</text>
<polyline fill="none" stroke="black" points="513.5,-52.5 632.5,-52.5 "/>
<text text-anchor="start" x="521.5" y="-40.5" font-family="Helvetica,sans-Serif" font-size="10.00">+ giuh_carry_over()</text>
</a>
</g>
</g>
<!-- Node8&#45;&gt;Node9 -->
<g id="edge9" class="edge">
<title>Node8&#45;&gt;Node9</title>
<path fill="none" stroke="#404040" d="M499.31,-292.4C507.9,-274.23 518.23,-251.17 526,-230 536.52,-201.34 536.24,-193.24 545,-164 548.85,-151.16 553.1,-137.32 557.1,-124.44"/>
<polygon fill="none" stroke="#404040" points="557.12,-124.38 555.09,-117.47 560.69,-112.93 562.72,-119.85 557.12,-124.38"/>
<text text-anchor="middle" x="558.5" y="-194.5" font-family="Helvetica,sans-Serif" font-size="10.00"> +next</text>
</g>
<!-- Node9&#45;&gt;Node8 -->
<g id="edge8" class="edge">
<title>Node9&#45;&gt;Node8</title>
<path fill="none" stroke="#404040" d="M581.99,-112.73C587.64,-145.27 591.3,-192.36 576,-230 567.77,-250.25 552.95,-268.56 537.52,-283.6"/>
<polygon fill="none" stroke="#404040" points="537.21,-283.9 535.54,-290.92 528.42,-292.07 530.09,-285.06 537.21,-283.9"/>
<text text-anchor="middle" x="596" y="-194.5" font-family="Helvetica,sans-Serif" font-size="10.00"> +ptr</text>
</g>
<!-- Node10&#45;&gt;Node8 -->
<g id="edge10" class="edge">
<title>Node10&#45;&gt;Node8</title>
<path fill="none" stroke="orange" d="M445.26,-453.44C453.64,-425.47 464.98,-387.62 473.04,-360.74"/>
<polygon fill="orange" stroke="orange" points="441.83,-452.68 442.31,-463.26 448.54,-454.69 441.83,-452.68"/>
<text text-anchor="start" x="455" y="-437" font-family="Helvetica,sans-Serif" font-size="10.00"> &lt; giuh::giuh_carry</text>
<text text-anchor="middle" x="494" y="-426" font-family="Helvetica,sans-Serif" font-size="10.00">_over &gt;</text>
</g>
<!-- Node11&#45;&gt;Node1 -->
<g id="edge12" class="edge">
<title>Node11&#45;&gt;Node1</title>
<path fill="none" stroke="#404040" d="M311.68,-297.8C302.92,-265.41 287.36,-210.34 271,-164 270.22,-161.79 269.41,-159.55 268.59,-157.3"/>
<polygon fill="none" stroke="#404040" points="268.55,-157.2 262.7,-152.99 264.33,-145.96 270.19,-150.18 268.55,-157.2"/>
<text text-anchor="middle" x="346.5" y="-222" font-family="Helvetica,sans-Serif" font-size="10.00"> &#45;cdf_cumulative_freqs</text>
<text text-anchor="middle" x="346.5" y="-211" font-family="Helvetica,sans-Serif" font-size="10.00">&#45;cdf_times</text>
<text text-anchor="start" x="292" y="-200" font-family="Helvetica,sans-Serif" font-size="10.00">&#45;interpolated_incremental</text>
<text text-anchor="middle" x="346.5" y="-189" font-family="Helvetica,sans-Serif" font-size="10.00">_runoff_values</text>
<text text-anchor="start" x="292" y="-178" font-family="Helvetica,sans-Serif" font-size="10.00">&#45;interpolated_regularized</text>
<text text-anchor="middle" x="346.5" y="-167" font-family="Helvetica,sans-Serif" font-size="10.00">_ordinates</text>
</g>
</g>
</svg>
        <g id="navigator" transform="translate(0 0)" fill="#404254">
                <rect fill="#f2f5e9" fill-opacity="0.5" stroke="#606060" stroke-width=".5" x="0" y="0" width="60" height="60"/>
                <use id="zoomplus" xlink:href="#zoomPlus" x="17" y="9" onmousedown="handleZoom(evt,'in')"/>
                <use id="zoomminus" xlink:href="#zoomMin" x="42" y="9" onmousedown="handleZoom(evt,'out')"/>
                <use id="reset" xlink:href="#resetDef" x="30" y="36" onmousedown="handleReset()"/>
                <g id="arrowUp" xlink:href="#dirArrow" transform="translate(30 24)" onmousedown="handlePan(0,-1)">
                  <use xlink:href="#rim" fill="#404040">
                        <set attributeName="fill" to="#808080" begin="arrowUp.mouseover" end="arrowUp.mouseout"/>
                  </use>
                  <path fill="none" stroke="white" stroke-width="1.5" d="M0,-3.0v7 M-2.5,-0.5L0,-3.0L2.5,-0.5"/>
                </g>
                <g id="arrowRight" xlink:href="#dirArrow" transform="rotate(90) translate(36 -43)" onmousedown="handlePan(1,0)">
                  <use xlink:href="#rim" fill="#404040">
                        <set attributeName="fill" to="#808080" begin="arrowRight.mouseover" end="arrowRight.mouseout"/>
                  </use>
                  <path fill="none" stroke="white" stroke-width="1.5" d="M0,-3.0v7 M-2.5,-0.5L0,-3.0L2.5,-0.5"/>
                </g>
                <g id="arrowDown" xlink:href="#dirArrow" transform="rotate(180) translate(-30 -48)" onmousedown="handlePan(0,1)">
                  <use xlink:href="#rim" fill="#404040">
                        <set attributeName="fill" to="#808080" begin="arrowDown.mouseover" end="arrowDown.mouseout"/>
                  </use>
                  <path fill="none" stroke="white" stroke-width="1.5" d="M0,-3.0v7 M-2.5,-0.5L0,-3.0L2.5,-0.5"/>
                </g>
                <g id="arrowLeft" xlink:href="#dirArrow" transform="rotate(270) translate(-36 17)" onmousedown="handlePan(-1,0)">
                  <use xlink:href="#rim" fill="#404040">
                        <set attributeName="fill" to="#808080" begin="arrowLeft.mouseover" end="arrowLeft.mouseout"/>
                  </use>
                  <path fill="none" stroke="white" stroke-width="1.5" d="M0,-3.0v7 M-2.5,-0.5L0,-3.0L2.5,-0.5"/>
                </g>
        </g>
        <svg viewBox="0 0 15 15" width="100%" height="30px" preserveAspectRatio="xMaxYMin meet">
         <g id="arrow_out" transform="scale(0.3 0.3)">
          <a xlink:href="classgiuh_1_1giuh__kernel__impl__coll__graph_org.svg" target="_base">
           <rect id="button" ry="5" rx="5" y="6" x="6" height="38" width="38"
                fill="#f2f5e9" fill-opacity="0.5" stroke="#606060" stroke-width="1.0"/>
           <path id="arrow"
             d="M 11.500037,31.436501 C 11.940474,20.09759 22.043105,11.32322 32.158766,21.979434 L 37.068811,17.246167 C 37.068811,17.246167 37.088388,32 37.088388,32 L 22.160133,31.978069 C 22.160133,31.978069 26.997745,27.140456 26.997745,27.140456 C 18.528582,18.264221 13.291696,25.230495 11.500037,31.436501 z"
             style="fill:#404040;"/>
          </a>
         </g>
        </svg>
</svg>
