<?xml version="1.0" encoding="UTF-8" standalone="no"?>
<!DOCTYPE svg PUBLIC "-//W3C//DTD SVG 1.1//EN"
 "http://www.w3.org/Graphics/SVG/1.1/DTD/svg11.dtd">
<!-- Generated by graphviz version 2.44.0 ()
 -->
<!-- Title: realization::Formulation_Manager Pages: 1 -->
<svg width="788pt" height="1156pt"
 viewBox="0.00 0.00 788.00 1156.00" xmlns="http://www.w3.org/2000/svg" xmlns:xlink="http://www.w3.org/1999/xlink">
<g id="graph0" class="graph" transform="scale(1 1) rotate(0) translate(4 1152)">
<title>realization::Formulation_Manager</title>
<polygon fill="white" stroke="transparent" points="-4,4 -4,-1152 784,-1152 784,4 -4,4"/>
<!-- Node1 -->
<g id="node1" class="node">
<title>Node1</title>
<g id="a_node1"><a xlink:title=" ">
<polygon fill="#bfbfbf" stroke="black" points="375.5,-0.5 375.5,-255.5 538.5,-255.5 538.5,-0.5 375.5,-0.5"/>
<text text-anchor="start" x="383.5" y="-243.5" font-family="Helvetica,sans-Serif" font-size="10.00">realization::Formulation</text>
<text text-anchor="middle" x="457" y="-232.5" font-family="Helvetica,sans-Serif" font-size="10.00">_Manager</text>
<polyline fill="none" stroke="black" points="375.5,-225.5 538.5,-225.5 "/>
<text text-anchor="start" x="383.5" y="-213.5" font-family="Helvetica,sans-Serif" font-size="10.00"># tree</text>
<text text-anchor="start" x="383.5" y="-202.5" font-family="Helvetica,sans-Serif" font-size="10.00"># global_formulation_tree</text>
<polyline fill="none" stroke="black" points="375.5,-195.5 538.5,-195.5 "/>
<text text-anchor="start" x="383.5" y="-183.5" font-family="Helvetica,sans-Serif" font-size="10.00">+ Formulation_Manager()</text>
<text text-anchor="start" x="383.5" y="-172.5" font-family="Helvetica,sans-Serif" font-size="10.00">+ Formulation_Manager()</text>
<text text-anchor="start" x="383.5" y="-161.5" font-family="Helvetica,sans-Serif" font-size="10.00">+ Formulation_Manager()</text>
<text text-anchor="start" x="383.5" y="-150.5" font-family="Helvetica,sans-Serif" font-size="10.00">+ ~Formulation_Manager()</text>
<text text-anchor="start" x="383.5" y="-139.5" font-family="Helvetica,sans-Serif" font-size="10.00">+ read()</text>
<text text-anchor="start" x="383.5" y="-128.5" font-family="Helvetica,sans-Serif" font-size="10.00">+ add_formulation()</text>
<text text-anchor="start" x="383.5" y="-117.5" font-family="Helvetica,sans-Serif" font-size="10.00">+ get_formulation()</text>
<text text-anchor="start" x="383.5" y="-106.5" font-family="Helvetica,sans-Serif" font-size="10.00">+ contains()</text>
<text text-anchor="start" x="383.5" y="-95.5" font-family="Helvetica,sans-Serif" font-size="10.00">+ get_size()</text>
<text text-anchor="start" x="383.5" y="-84.5" font-family="Helvetica,sans-Serif" font-size="10.00">+ is_empty()</text>
<text text-anchor="start" x="383.5" y="-73.5" font-family="Helvetica,sans-Serif" font-size="10.00">+ begin()</text>
<text text-anchor="start" x="383.5" y="-62.5" font-family="Helvetica,sans-Serif" font-size="10.00">+ end()</text>
<text text-anchor="start" x="383.5" y="-51.5" font-family="Helvetica,sans-Serif" font-size="10.00"># construct_formulation</text>
<text text-anchor="start" x="383.5" y="-40.5" font-family="Helvetica,sans-Serif" font-size="10.00">_from_tree()</text>
<text text-anchor="start" x="383.5" y="-29.5" font-family="Helvetica,sans-Serif" font-size="10.00"># construct_missing_formulation()</text>
<text text-anchor="start" x="383.5" y="-18.5" font-family="Helvetica,sans-Serif" font-size="10.00"># get_global_forcing</text>
<text text-anchor="start" x="383.5" y="-7.5" font-family="Helvetica,sans-Serif" font-size="10.00">_params()</text>
</a>
</g>
</g>
<!-- Node2 -->
<g id="node2" class="node">
<title>Node2</title>
<g id="a_node2"><a xlink:title=" ">
<polygon fill="white" stroke="#bfbfbf" points="371,-391.5 371,-470.5 505,-470.5 505,-391.5 371,-391.5"/>
<text text-anchor="start" x="379" y="-458.5" font-family="Helvetica,sans-Serif" font-size="10.00">std::map&lt; std::string,</text>
<text text-anchor="start" x="379" y="-447.5" font-family="Helvetica,sans-Serif" font-size="10.00"> std::shared_ptr&lt; realization</text>
<text text-anchor="middle" x="438" y="-436.5" font-family="Helvetica,sans-Serif" font-size="10.00">::Formulation &gt; &gt;</text>
<polyline fill="none" stroke="#bfbfbf" points="371,-429.5 505,-429.5 "/>
<text text-anchor="middle" x="438" y="-417.5" font-family="Helvetica,sans-Serif" font-size="10.00"> </text>
<polyline fill="none" stroke="#bfbfbf" points="371,-410.5 505,-410.5 "/>
<text text-anchor="middle" x="438" y="-398.5" font-family="Helvetica,sans-Serif" font-size="10.00"> </text>
</a>
</g>
</g>
<!-- Node2&#45;&gt;Node1 -->
<g id="edge1" class="edge">
<title>Node2&#45;&gt;Node1</title>
<path fill="none" stroke="#404040" d="M440.45,-391.27C442.44,-359.64 445.39,-312.92 448.25,-267.64"/>
<polygon fill="none" stroke="#404040" points="448.26,-267.53 444.64,-261.29 449.01,-255.55 452.63,-261.79 448.26,-267.53"/>
<text text-anchor="middle" x="478.5" y="-277" font-family="Helvetica,sans-Serif" font-size="10.00"> #formulations</text>
</g>
<!-- Node3 -->
<g id="node3" class="node">
<title>Node3</title>
<g id="a_node3"><a xlink:title="STL class.">
<polygon fill="white" stroke="#bfbfbf" points="666.5,-984.5 666.5,-1041.5 725.5,-1041.5 725.5,-984.5 666.5,-984.5"/>
<text text-anchor="middle" x="696" y="-1029.5" font-family="Helvetica,sans-Serif" font-size="10.00">std::string</text>
<polyline fill="none" stroke="#bfbfbf" points="666.5,-1022.5 725.5,-1022.5 "/>
<text text-anchor="middle" x="696" y="-1010.5" font-family="Helvetica,sans-Serif" font-size="10.00"> </text>
<polyline fill="none" stroke="#bfbfbf" points="666.5,-1003.5 725.5,-1003.5 "/>
<text text-anchor="middle" x="696" y="-991.5" font-family="Helvetica,sans-Serif" font-size="10.00"> </text>
</a>
</g>
</g>
<!-- Node3&#45;&gt;Node2 -->
<g id="edge2" class="edge">
<title>Node3&#45;&gt;Node2</title>
<path fill="none" stroke="#404040" d="M666.31,-1006.68C630.09,-998.49 569.97,-979.11 540,-937 454.15,-816.35 536.25,-750.06 502,-606 491.77,-562.95 474.07,-515.97 459.88,-481.68"/>
<polygon fill="none" stroke="#404040" points="459.86,-481.63 453.85,-477.65 455.21,-470.57 461.22,-474.55 459.86,-481.63"/>
<text text-anchor="middle" x="525.5" y="-719.5" font-family="Helvetica,sans-Serif" font-size="10.00"> +keys</text>
</g>
<!-- Node6 -->
<g id="node6" class="node">
<title>Node6</title>
<g id="a_node6"><a xlink:href="classrealization_1_1_formulation.html" target="_top" xlink:title=" ">
<polygon fill="white" stroke="black" points="549.5,-769.5 549.5,-936.5 686.5,-936.5 686.5,-769.5 549.5,-769.5"/>
<text text-anchor="middle" x="618" y="-924.5" font-family="Helvetica,sans-Serif" font-size="10.00">realization::Formulation</text>
<polyline fill="none" stroke="black" points="549.5,-917.5 686.5,-917.5 "/>
<text text-anchor="middle" x="618" y="-905.5" font-family="Helvetica,sans-Serif" font-size="10.00"> </text>
<polyline fill="none" stroke="black" points="549.5,-898.5 686.5,-898.5 "/>
<text text-anchor="start" x="557.5" y="-886.5" font-family="Helvetica,sans-Serif" font-size="10.00">+ Formulation()</text>
<text text-anchor="start" x="557.5" y="-875.5" font-family="Helvetica,sans-Serif" font-size="10.00">+ ~Formulation()</text>
<text text-anchor="start" x="557.5" y="-864.5" font-family="Helvetica,sans-Serif" font-size="10.00">+ get_formulation_type()</text>
<text text-anchor="start" x="557.5" y="-853.5" font-family="Helvetica,sans-Serif" font-size="10.00">+ get_response()</text>
<text text-anchor="start" x="557.5" y="-842.5" font-family="Helvetica,sans-Serif" font-size="10.00">+ add_time()</text>
<text text-anchor="start" x="557.5" y="-831.5" font-family="Helvetica,sans-Serif" font-size="10.00">+ get_id()</text>
<text text-anchor="start" x="557.5" y="-820.5" font-family="Helvetica,sans-Serif" font-size="10.00">+ create_formulation()</text>
<text text-anchor="start" x="557.5" y="-809.5" font-family="Helvetica,sans-Serif" font-size="10.00">+ create_formulation()</text>
<text text-anchor="start" x="557.5" y="-798.5" font-family="Helvetica,sans-Serif" font-size="10.00"># get_required_parameters()</text>
<text text-anchor="start" x="557.5" y="-787.5" font-family="Helvetica,sans-Serif" font-size="10.00"># interpret_parameters()</text>
<text text-anchor="start" x="557.5" y="-776.5" font-family="Helvetica,sans-Serif" font-size="10.00"># validate_parameters()</text>
</a>
</g>
</g>
<!-- Node3&#45;&gt;Node6 -->
<g id="edge6" class="edge">
<title>Node3&#45;&gt;Node6</title>
<path fill="none" stroke="#404040" d="M682.41,-984.48C677.14,-973.8 670.78,-960.91 664.13,-947.44"/>
<polygon fill="none" stroke="#404040" points="664.06,-947.3 657.81,-943.69 658.75,-936.54 664.99,-940.15 664.06,-947.3"/>
<text text-anchor="middle" x="680" y="-958" font-family="Helvetica,sans-Serif" font-size="10.00"> #id</text>
</g>
<!-- Node11 -->
<g id="node11" class="node">
<title>Node11</title>
<g id="a_node11"><a xlink:title=" ">
<polygon fill="white" stroke="#bfbfbf" points="582.5,-606.5 582.5,-674.5 689.5,-674.5 689.5,-606.5 582.5,-606.5"/>
<text text-anchor="start" x="590.5" y="-662.5" font-family="Helvetica,sans-Serif" font-size="10.00">std::map&lt; std::string,</text>
<text text-anchor="middle" x="636" y="-651.5" font-family="Helvetica,sans-Serif" font-size="10.00"> JSONProperty &gt;</text>
<polyline fill="none" stroke="#bfbfbf" points="582.5,-644.5 689.5,-644.5 "/>
<text text-anchor="middle" x="636" y="-632.5" font-family="Helvetica,sans-Serif" font-size="10.00"> </text>
<polyline fill="none" stroke="#bfbfbf" points="582.5,-625.5 689.5,-625.5 "/>
<text text-anchor="middle" x="636" y="-613.5" font-family="Helvetica,sans-Serif" font-size="10.00"> </text>
</a>
</g>
</g>
<!-- Node3&#45;&gt;Node11 -->
<g id="edge13" class="edge">
<title>Node3&#45;&gt;Node11</title>
<path fill="none" stroke="#404040" d="M699.88,-984.24C705.4,-938.65 713.07,-845.37 696,-769 689.46,-739.73 675.42,-709.26 662.57,-685.45"/>
<polygon fill="none" stroke="#404040" points="662.41,-685.16 656,-681.85 656.59,-674.66 663,-677.97 662.41,-685.16"/>
<text text-anchor="middle" x="720.5" y="-850.5" font-family="Helvetica,sans-Serif" font-size="10.00"> +keys</text>
</g>
<!-- Node12 -->
<g id="node12" class="node">
<title>Node12</title>
<g id="a_node12"><a xlink:href="classgeojson_1_1_j_s_o_n_property.html" target="_top" xlink:title="@TODO: Convert JSONProperty into a variant of the supported types">
<polygon fill="white" stroke="black" points="649,-303.5 649,-558.5 767,-558.5 767,-303.5 649,-303.5"/>
<text text-anchor="middle" x="708" y="-546.5" font-family="Helvetica,sans-Serif" font-size="10.00">geojson::JSONProperty</text>
<polyline fill="none" stroke="black" points="649,-539.5 767,-539.5 "/>
<text text-anchor="start" x="657" y="-527.5" font-family="Helvetica,sans-Serif" font-size="10.00">&#45; type</text>
<text text-anchor="start" x="657" y="-516.5" font-family="Helvetica,sans-Serif" font-size="10.00">&#45; natural_number</text>
<text text-anchor="start" x="657" y="-505.5" font-family="Helvetica,sans-Serif" font-size="10.00">&#45; real_number</text>
<text text-anchor="start" x="657" y="-494.5" font-family="Helvetica,sans-Serif" font-size="10.00">&#45; boolean</text>
<polyline fill="none" stroke="black" points="649,-487.5 767,-487.5 "/>
<text text-anchor="start" x="657" y="-475.5" font-family="Helvetica,sans-Serif" font-size="10.00">+ JSONProperty()</text>
<text text-anchor="start" x="657" y="-464.5" font-family="Helvetica,sans-Serif" font-size="10.00">+ JSONProperty()</text>
<text text-anchor="start" x="657" y="-453.5" font-family="Helvetica,sans-Serif" font-size="10.00">+ JSONProperty()</text>
<text text-anchor="start" x="657" y="-442.5" font-family="Helvetica,sans-Serif" font-size="10.00">+ JSONProperty()</text>
<text text-anchor="start" x="657" y="-431.5" font-family="Helvetica,sans-Serif" font-size="10.00">+ JSONProperty()</text>
<text text-anchor="start" x="657" y="-420.5" font-family="Helvetica,sans-Serif" font-size="10.00">+ JSONProperty()</text>
<text text-anchor="start" x="657" y="-409.5" font-family="Helvetica,sans-Serif" font-size="10.00">+ JSONProperty()</text>
<text text-anchor="start" x="657" y="-398.5" font-family="Helvetica,sans-Serif" font-size="10.00">+ JSONProperty()</text>
<text text-anchor="start" x="657" y="-387.5" font-family="Helvetica,sans-Serif" font-size="10.00">+ JSONProperty()</text>
<text text-anchor="start" x="657" y="-376.5" font-family="Helvetica,sans-Serif" font-size="10.00">+ JSONProperty()</text>
<text text-anchor="start" x="657" y="-365.5" font-family="Helvetica,sans-Serif" font-size="10.00">+ ~JSONProperty()</text>
<text text-anchor="start" x="657" y="-354.5" font-family="Helvetica,sans-Serif" font-size="10.00">+ JSONProperty()</text>
<text text-anchor="start" x="657" y="-343.5" font-family="Helvetica,sans-Serif" font-size="10.00">+ JSONProperty()</text>
<text text-anchor="start" x="657" y="-332.5" font-family="Helvetica,sans-Serif" font-size="10.00">+ get_type()</text>
<text text-anchor="start" x="657" y="-321.5" font-family="Helvetica,sans-Serif" font-size="10.00">+ as_natural_number()</text>
<text text-anchor="start" x="657" y="-310.5" font-family="Helvetica,sans-Serif" font-size="10.00">and 15 more...</text>
</a>
</g>
</g>
<!-- Node3&#45;&gt;Node12 -->
<g id="edge15" class="edge">
<title>Node3&#45;&gt;Node12</title>
<path fill="none" stroke="#404040" d="M716.49,-984.34C725.27,-970.8 734.52,-953.82 739,-937 780.2,-782.3 742.4,-736.35 727,-577 726.8,-574.96 726.6,-572.9 726.39,-570.83"/>
<polygon fill="none" stroke="#404040" points="726.39,-570.8 721.78,-565.25 725.13,-558.86 729.74,-564.41 726.39,-570.8"/>
<text text-anchor="middle" x="766" y="-725" font-family="Helvetica,sans-Serif" font-size="10.00"> &#45;key</text>
<text text-anchor="middle" x="766" y="-714" font-family="Helvetica,sans-Serif" font-size="10.00">&#45;string</text>
</g>
<!-- Node4 -->
<g id="node4" class="node">
<title>Node4</title>
<g id="a_node4"><a xlink:title="STL class.">
<polygon fill="white" stroke="#bfbfbf" points="649.5,-1079.5 649.5,-1147.5 742.5,-1147.5 742.5,-1079.5 649.5,-1079.5"/>
<text text-anchor="start" x="657.5" y="-1135.5" font-family="Helvetica,sans-Serif" font-size="10.00">std::basic_string&lt;</text>
<text text-anchor="middle" x="696" y="-1124.5" font-family="Helvetica,sans-Serif" font-size="10.00"> char &gt;</text>
<polyline fill="none" stroke="#bfbfbf" points="649.5,-1117.5 742.5,-1117.5 "/>
<text text-anchor="middle" x="696" y="-1105.5" font-family="Helvetica,sans-Serif" font-size="10.00"> </text>
<polyline fill="none" stroke="#bfbfbf" points="649.5,-1098.5 742.5,-1098.5 "/>
<text text-anchor="middle" x="696" y="-1086.5" font-family="Helvetica,sans-Serif" font-size="10.00"> </text>
</a>
</g>
</g>
<!-- Node4&#45;&gt;Node3 -->
<g id="edge3" class="edge">
<title>Node4&#45;&gt;Node3</title>
<path fill="none" stroke="midnightblue" d="M696,-1069.38C696,-1059.94 696,-1050.2 696,-1041.57"/>
<polygon fill="none" stroke="midnightblue" points="692.5,-1069.43 696,-1079.43 699.5,-1069.43 692.5,-1069.43"/>
</g>
<!-- Node5 -->
<g id="node5" class="node">
<title>Node5</title>
<g id="a_node5"><a xlink:title=" ">
<polygon fill="white" stroke="#bfbfbf" points="361,-606.5 361,-674.5 493,-674.5 493,-606.5 361,-606.5"/>
<text text-anchor="start" x="369" y="-662.5" font-family="Helvetica,sans-Serif" font-size="10.00">std::shared_ptr&lt; realization</text>
<text text-anchor="middle" x="427" y="-651.5" font-family="Helvetica,sans-Serif" font-size="10.00">::Formulation &gt;</text>
<polyline fill="none" stroke="#bfbfbf" points="361,-644.5 493,-644.5 "/>
<text text-anchor="middle" x="427" y="-632.5" font-family="Helvetica,sans-Serif" font-size="10.00"> </text>
<polyline fill="none" stroke="#bfbfbf" points="361,-625.5 493,-625.5 "/>
<text text-anchor="start" x="369" y="-613.5" font-family="Helvetica,sans-Serif" font-size="10.00">+ operator&#45;&gt;()</text>
</a>
</g>
</g>
<!-- Node5&#45;&gt;Node2 -->
<g id="edge4" class="edge">
<title>Node5&#45;&gt;Node2</title>
<path fill="none" stroke="#404040" d="M428.77,-606.16C430.53,-572.92 433.26,-521.41 435.3,-483.02"/>
<polygon fill="none" stroke="#404040" points="435.32,-482.53 431.64,-476.33 435.96,-470.55 439.63,-476.75 435.32,-482.53"/>
<text text-anchor="middle" x="455.5" y="-580" font-family="Helvetica,sans-Serif" font-size="10.00"> +elements</text>
</g>
<!-- Node6&#45;&gt;Node5 -->
<g id="edge5" class="edge">
<title>Node6&#45;&gt;Node5</title>
<path fill="none" stroke="#404040" d="M598.78,-769.48C589.09,-742.36 574.8,-713.86 554,-693 540.36,-679.32 522.6,-669.14 504.7,-661.61"/>
<polygon fill="none" stroke="#404040" points="504.45,-661.52 497.4,-663.06 493.27,-657.15 500.31,-655.61 504.45,-661.52"/>
<text text-anchor="middle" x="600" y="-719.5" font-family="Helvetica,sans-Serif" font-size="10.00"> +ptr</text>
</g>
<!-- Node7 -->
<g id="node7" class="node">
<title>Node7</title>
<g id="a_node7"><a xlink:title="STL class.">
<polygon fill="white" stroke="#bfbfbf" points="70.5,-824.5 70.5,-881.5 173.5,-881.5 173.5,-824.5 70.5,-824.5"/>
<text text-anchor="middle" x="122" y="-869.5" font-family="Helvetica,sans-Serif" font-size="10.00">std::shared_ptr&lt; T &gt;</text>
<polyline fill="none" stroke="#bfbfbf" points="70.5,-862.5 173.5,-862.5 "/>
<text text-anchor="middle" x="122" y="-850.5" font-family="Helvetica,sans-Serif" font-size="10.00"> </text>
<polyline fill="none" stroke="#bfbfbf" points="70.5,-843.5 173.5,-843.5 "/>
<text text-anchor="start" x="78.5" y="-831.5" font-family="Helvetica,sans-Serif" font-size="10.00">+ operator&#45;&gt;()</text>
</a>
</g>
</g>
<!-- Node7&#45;&gt;Node5 -->
<g id="edge7" class="edge">
<title>Node7&#45;&gt;Node5</title>
<path fill="none" stroke="orange" d="M124.66,-814.52C129.43,-777.45 142.78,-722.14 180,-693 209.39,-669.99 310.85,-684.31 347,-675 351.52,-673.84 356.12,-672.46 360.71,-670.95"/>
<polygon fill="orange" stroke="orange" points="121.18,-814.13 123.52,-824.46 128.13,-814.92 121.18,-814.13"/>
<text text-anchor="middle" x="239" y="-719.5" font-family="Helvetica,sans-Serif" font-size="10.00"> &lt; realization::Formulation &gt;</text>
</g>
<!-- Node8 -->
<g id="node8" class="node">
<title>Node8</title>
<g id="a_node8"><a xlink:title=" ">
<polygon fill="white" stroke="#bfbfbf" points="107.5,-984.5 107.5,-1041.5 136.5,-1041.5 136.5,-984.5 107.5,-984.5"/>
<text text-anchor="middle" x="122" y="-1029.5" font-family="Helvetica,sans-Serif" font-size="10.00">T</text>
<polyline fill="none" stroke="#bfbfbf" points="107.5,-1022.5 136.5,-1022.5 "/>
<text text-anchor="middle" x="122" y="-1010.5" font-family="Helvetica,sans-Serif" font-size="10.00"> </text>
<polyline fill="none" stroke="#bfbfbf" points="107.5,-1003.5 136.5,-1003.5 "/>
<text text-anchor="middle" x="122" y="-991.5" font-family="Helvetica,sans-Serif" font-size="10.00"> </text>
</a>
</g>
</g>
<!-- Node8&#45;&gt;Node7 -->
<g id="edge8" class="edge">
<title>Node8&#45;&gt;Node7</title>
<path fill="none" stroke="#404040" d="M122,-984.48C122,-959.48 122,-922.31 122,-894.03"/>
<polygon fill="none" stroke="#404040" points="122,-893.74 118,-887.74 122,-881.74 126,-887.74 122,-893.74"/>
<text text-anchor="middle" x="132" y="-958" font-family="Helvetica,sans-Serif" font-size="10.00"> +ptr</text>
</g>
<!-- Node9 -->
<g id="node9" class="node">
<title>Node9</title>
<g id="a_node9"><a xlink:title="STL class.">
<polygon fill="white" stroke="#bfbfbf" points="196,-824.5 196,-881.5 284,-881.5 284,-824.5 196,-824.5"/>
<text text-anchor="middle" x="240" y="-869.5" font-family="Helvetica,sans-Serif" font-size="10.00">std::map&lt; K, T &gt;</text>
<polyline fill="none" stroke="#bfbfbf" points="196,-862.5 284,-862.5 "/>
<text text-anchor="middle" x="240" y="-850.5" font-family="Helvetica,sans-Serif" font-size="10.00"> </text>
<polyline fill="none" stroke="#bfbfbf" points="196,-843.5 284,-843.5 "/>
<text text-anchor="middle" x="240" y="-831.5" font-family="Helvetica,sans-Serif" font-size="10.00"> </text>
</a>
</g>
</g>
<!-- Node8&#45;&gt;Node9 -->
<g id="edge11" class="edge">
<title>Node8&#45;&gt;Node9</title>
<path fill="none" stroke="#404040" d="M136.63,-994.37C148.99,-979.33 167.02,-957.03 182,-937 192.93,-922.39 204.53,-905.98 214.47,-891.63"/>
<polygon fill="none" stroke="#404040" points="214.56,-891.49 214.67,-884.28 221.37,-881.61 221.26,-888.82 214.56,-891.49"/>
<text text-anchor="middle" x="192.5" y="-958" font-family="Helvetica,sans-Serif" font-size="10.00"> +elements</text>
</g>
<!-- Node14 -->
<g id="node14" class="node">
<title>Node14</title>
<g id="a_node14"><a xlink:title="STL class.">
<polygon fill="white" stroke="#bfbfbf" points="0,-693.5 0,-750.5 84,-750.5 84,-693.5 0,-693.5"/>
<text text-anchor="middle" x="42" y="-738.5" font-family="Helvetica,sans-Serif" font-size="10.00">std::vector&lt; T &gt;</text>
<polyline fill="none" stroke="#bfbfbf" points="0,-731.5 84,-731.5 "/>
<text text-anchor="middle" x="42" y="-719.5" font-family="Helvetica,sans-Serif" font-size="10.00"> </text>
<polyline fill="none" stroke="#bfbfbf" points="0,-712.5 84,-712.5 "/>
<text text-anchor="middle" x="42" y="-700.5" font-family="Helvetica,sans-Serif" font-size="10.00"> </text>
</a>
</g>
</g>
<!-- Node8&#45;&gt;Node14 -->
<g id="edge19" class="edge">
<title>Node8&#45;&gt;Node14</title>
<path fill="none" stroke="#404040" d="M107.28,-1002.82C95.27,-994.59 78.75,-981.46 69,-966 29.66,-903.61 31.29,-813.95 36.39,-762.79"/>
<polygon fill="none" stroke="#404040" points="36.41,-762.58 33.1,-756.18 37.74,-750.66 41.05,-757.06 36.41,-762.58"/>
<text text-anchor="middle" x="93.5" y="-958" font-family="Helvetica,sans-Serif" font-size="10.00"> +elements</text>
</g>
<!-- Node9&#45;&gt;Node2 -->
<g id="edge9" class="edge">
<title>Node9&#45;&gt;Node2</title>
<path fill="none" stroke="orange" d="M232.74,-814.15C225,-763.99 217.7,-673.95 249,-606 275.5,-548.48 330.75,-501.23 374.7,-470.56"/>
<polygon fill="orange" stroke="orange" points="229.32,-814.91 234.39,-824.22 236.23,-813.79 229.32,-814.91"/>
<text text-anchor="start" x="249" y="-649" font-family="Helvetica,sans-Serif" font-size="10.00"> &lt; std::string, std</text>
<text text-anchor="start" x="249" y="-638" font-family="Helvetica,sans-Serif" font-size="10.00">::shared_ptr&lt; realization</text>
<text text-anchor="middle" x="300.5" y="-627" font-family="Helvetica,sans-Serif" font-size="10.00">::Formulation &gt; &gt;</text>
</g>
<!-- Node9&#45;&gt;Node11 -->
<g id="edge21" class="edge">
<title>Node9&#45;&gt;Node11</title>
<path fill="none" stroke="orange" d="M258.82,-815.33C280.14,-777.88 318.57,-721.33 369,-693 421.01,-663.78 443.42,-686.25 502,-675 528.61,-669.89 557.84,-662.76 582.19,-656.4"/>
<polygon fill="orange" stroke="orange" points="255.57,-813.97 253.77,-824.41 261.69,-817.37 255.57,-813.97"/>
<text text-anchor="middle" x="434" y="-719.5" font-family="Helvetica,sans-Serif" font-size="10.00"> &lt; std::string, JSONProperty &gt;</text>
</g>
<!-- Node10 -->
<g id="node10" class="node">
<title>Node10</title>
<g id="a_node10"><a xlink:title=" ">
<polygon fill="white" stroke="#bfbfbf" points="225.5,-984.5 225.5,-1041.5 254.5,-1041.5 254.5,-984.5 225.5,-984.5"/>
<text text-anchor="middle" x="240" y="-1029.5" font-family="Helvetica,sans-Serif" font-size="10.00">K</text>
<polyline fill="none" stroke="#bfbfbf" points="225.5,-1022.5 254.5,-1022.5 "/>
<text text-anchor="middle" x="240" y="-1010.5" font-family="Helvetica,sans-Serif" font-size="10.00"> </text>
<polyline fill="none" stroke="#bfbfbf" points="225.5,-1003.5 254.5,-1003.5 "/>
<text text-anchor="middle" x="240" y="-991.5" font-family="Helvetica,sans-Serif" font-size="10.00"> </text>
</a>
</g>
</g>
<!-- Node10&#45;&gt;Node9 -->
<g id="edge10" class="edge">
<title>Node10&#45;&gt;Node9</title>
<path fill="none" stroke="#404040" d="M240,-984.48C240,-959.48 240,-922.31 240,-894.03"/>
<polygon fill="none" stroke="#404040" points="240,-893.74 236,-887.74 240,-881.74 244,-887.74 240,-893.74"/>
<text text-anchor="middle" x="254.5" y="-958" font-family="Helvetica,sans-Serif" font-size="10.00"> +keys</text>
</g>
<!-- Node11&#45;&gt;Node1 -->
<g id="edge12" class="edge">
<title>Node11&#45;&gt;Node1</title>
<path fill="none" stroke="#404040" d="M592.8,-606.36C578.53,-593.18 564.02,-576.88 555,-559 497.31,-444.7 545.6,-397.82 513,-274 512.43,-271.84 511.84,-269.67 511.23,-267.5"/>
<polygon fill="none" stroke="#404040" points="511.17,-267.3 505.65,-262.67 507.8,-255.78 513.32,-260.41 511.17,-267.3"/>
<text text-anchor="middle" x="597.5" y="-439.5" font-family="Helvetica,sans-Serif" font-size="10.00"> #global_forcing</text>
<text text-anchor="start" x="555" y="-428.5" font-family="Helvetica,sans-Serif" font-size="10.00">#global_formulation</text>
<text text-anchor="middle" x="597.5" y="-417.5" font-family="Helvetica,sans-Serif" font-size="10.00">_parameters</text>
</g>
<!-- Node11&#45;&gt;Node12 -->
<g id="edge20" class="edge">
<title>Node11&#45;&gt;Node12</title>
<path fill="none" stroke="#404040" d="M673.76,-606.38C678.52,-600.68 682.82,-594.49 686,-588 688.75,-582.39 691.18,-576.53 693.33,-570.53"/>
<polygon fill="none" stroke="#404040" points="693.43,-570.22 691.48,-563.28 697.14,-558.81 699.09,-565.75 693.43,-570.22"/>
<text text-anchor="middle" x="706" y="-580" font-family="Helvetica,sans-Serif" font-size="10.00"> &#45;values</text>
</g>
<!-- Node12&#45;&gt;Node11 -->
<g id="edge14" class="edge">
<title>Node12&#45;&gt;Node11</title>
<path fill="none" stroke="#404040" d="M648.97,-539.73C644.14,-552.03 639.98,-564.6 637,-577 635.7,-582.43 634.88,-588.2 634.4,-593.96"/>
<polygon fill="none" stroke="#404040" points="634.38,-594.41 638.11,-600.58 633.84,-606.4 630.11,-600.23 634.38,-594.41"/>
<text text-anchor="middle" x="661.5" y="-580" font-family="Helvetica,sans-Serif" font-size="10.00"> +elements</text>
</g>
<!-- Node13 -->
<g id="node13" class="node">
<title>Node13</title>
<g id="a_node13"><a xlink:title=" ">
<polygon fill="white" stroke="#bfbfbf" points="586,-94 586,-162 690,-162 690,-94 586,-94"/>
<text text-anchor="start" x="594" y="-150" font-family="Helvetica,sans-Serif" font-size="10.00">std::vector&lt; geojson</text>
<text text-anchor="middle" x="638" y="-139" font-family="Helvetica,sans-Serif" font-size="10.00">::JSONProperty &gt;</text>
<polyline fill="none" stroke="#bfbfbf" points="586,-132 690,-132 "/>
<text text-anchor="middle" x="638" y="-120" font-family="Helvetica,sans-Serif" font-size="10.00"> </text>
<polyline fill="none" stroke="#bfbfbf" points="586,-113 690,-113 "/>
<text text-anchor="middle" x="638" y="-101" font-family="Helvetica,sans-Serif" font-size="10.00"> </text>
</a>
</g>
</g>
<!-- Node12&#45;&gt;Node13 -->
<g id="edge17" class="edge">
<title>Node12&#45;&gt;Node13</title>
<path fill="none" stroke="#404040" d="M692.08,-303.21C690.23,-293.29 688.21,-283.45 686,-274 677.99,-239.77 665.4,-202.11 655.13,-173.75"/>
<polygon fill="none" stroke="#404040" points="655.03,-173.47 649.2,-169.22 650.89,-162.2 656.71,-166.46 655.03,-173.47"/>
<text text-anchor="middle" x="711.5" y="-277" font-family="Helvetica,sans-Serif" font-size="10.00"> +elements</text>
</g>
<!-- Node13&#45;&gt;Node12 -->
<g id="edge16" class="edge">
<title>Node13&#45;&gt;Node12</title>
<path fill="none" stroke="#404040" d="M634.1,-162.05C631.29,-193.96 629.47,-243.42 639,-285 640.66,-292.22 642.71,-299.51 645.06,-306.77"/>
<polygon fill="none" stroke="#404040" points="645.07,-306.79 650.82,-311.16 649,-318.14 643.25,-313.77 645.07,-306.79"/>
<text text-anchor="middle" x="662.5" y="-277" font-family="Helvetica,sans-Serif" font-size="10.00"> &#45;value_list</text>
</g>
<!-- Node14&#45;&gt;Node13 -->
<g id="edge18" class="edge">
<title>Node14&#45;&gt;Node13</title>
<path fill="none" stroke="orange" d="M63.89,-684.53C82.05,-654.94 109.01,-612.45 135,-577 228.51,-449.47 232.33,-393.52 362,-303 393.7,-280.87 406.61,-283.81 444,-274 488.95,-262.21 507.65,-280.73 547,-256 582.6,-233.63 608.45,-191.79 623.31,-162.26"/>
<polygon fill="orange" stroke="orange" points="60.77,-682.93 58.55,-693.28 66.74,-686.57 60.77,-682.93"/>
<text text-anchor="middle" x="195.5" y="-580" font-family="Helvetica,sans-Serif" font-size="10.00"> &lt; geojson::JSONProperty &gt;</text>
</g>
</g>
</svg>
