<?xml version="1.0" encoding="UTF-8" standalone="no"?>
<!DOCTYPE svg PUBLIC "-//W3C//DTD SVG 1.1//EN"
 "http://www.w3.org/Graphics/SVG/1.1/DTD/svg11.dtd">
<!-- Generated by graphviz version 2.44.0 ()
 -->
<!-- Title: HY_CatchmentArea Pages: 1 -->
<svg width="296pt" height="496pt"
 viewBox="0.00 0.00 296.00 496.00" xmlns="http://www.w3.org/2000/svg" xmlns:xlink="http://www.w3.org/1999/xlink">
<g id="graph0" class="graph" transform="scale(1 1) rotate(0) translate(4 492)">
<title>HY_CatchmentArea</title>
<polygon fill="white" stroke="transparent" points="-4,4 -4,-492 292,-492 292,4 -4,4"/>
<!-- Node1 -->
<g id="node1" class="node">
<title>Node1</title>
<g id="a_node1"><a xlink:title=" ">
<polygon fill="#bfbfbf" stroke="black" points="82,-248.5 82,-327.5 205,-327.5 205,-248.5 82,-248.5"/>
<text text-anchor="middle" x="143.5" y="-315.5" font-family="Helvetica,sans-Serif" font-size="10.00">HY_CatchmentArea</text>
<polyline fill="none" stroke="black" points="82,-308.5 205,-308.5 "/>
<text text-anchor="start" x="90" y="-296.5" font-family="Helvetica,sans-Serif" font-size="10.00"># bounds</text>
<polyline fill="none" stroke="black" points="82,-289.5 205,-289.5 "/>
<text text-anchor="start" x="90" y="-277.5" font-family="Helvetica,sans-Serif" font-size="10.00">+ HY_CatchmentArea()</text>
<text text-anchor="start" x="90" y="-266.5" font-family="Helvetica,sans-Serif" font-size="10.00">+ HY_CatchmentArea()</text>
<text text-anchor="start" x="90" y="-255.5" font-family="Helvetica,sans-Serif" font-size="10.00">+ ~HY_CatchmentArea()</text>
</a>
</g>
</g>
<!-- Node4 -->
<g id="node4" class="node">
<title>Node4</title>
<g id="a_node4"><a xlink:href="classrealization_1_1_tshirt___realization.html" target="_top" xlink:title=" ">
<polygon fill="white" stroke="black" points="0,-6 0,-206 135,-206 135,-6 0,-6"/>
<text text-anchor="start" x="8" y="-194" font-family="Helvetica,sans-Serif" font-size="10.00">realization::Tshirt</text>
<text text-anchor="middle" x="67.5" y="-183" font-family="Helvetica,sans-Serif" font-size="10.00">_Realization</text>
<polyline fill="none" stroke="black" points="0,-176 135,-176 "/>
<text text-anchor="start" x="8" y="-164" font-family="Helvetica,sans-Serif" font-size="10.00">&#45; catchment_id</text>
<text text-anchor="start" x="8" y="-153" font-family="Helvetica,sans-Serif" font-size="10.00">&#45; state</text>
<text text-anchor="start" x="8" y="-142" font-family="Helvetica,sans-Serif" font-size="10.00">&#45; fluxes</text>
<text text-anchor="start" x="8" y="-131" font-family="Helvetica,sans-Serif" font-size="10.00">&#45; cascade_backing_storage</text>
<text text-anchor="start" x="8" y="-120" font-family="Helvetica,sans-Serif" font-size="10.00">&#45; params</text>
<text text-anchor="start" x="8" y="-109" font-family="Helvetica,sans-Serif" font-size="10.00">&#45; model</text>
<text text-anchor="start" x="8" y="-98" font-family="Helvetica,sans-Serif" font-size="10.00">&#45; giuh_kernel</text>
<text text-anchor="start" x="8" y="-87" font-family="Helvetica,sans-Serif" font-size="10.00">&#45; dt</text>
<polyline fill="none" stroke="black" points="0,-80 135,-80 "/>
<text text-anchor="start" x="8" y="-68" font-family="Helvetica,sans-Serif" font-size="10.00">+ Tshirt_Realization()</text>
<text text-anchor="start" x="8" y="-57" font-family="Helvetica,sans-Serif" font-size="10.00">+ Tshirt_Realization()</text>
<text text-anchor="start" x="8" y="-46" font-family="Helvetica,sans-Serif" font-size="10.00">+ ~Tshirt_Realization()</text>
<text text-anchor="start" x="8" y="-35" font-family="Helvetica,sans-Serif" font-size="10.00">+ get_response()</text>
<text text-anchor="start" x="8" y="-24" font-family="Helvetica,sans-Serif" font-size="10.00">+ get_response()</text>
<text text-anchor="start" x="8" y="-13" font-family="Helvetica,sans-Serif" font-size="10.00">+ add_time()</text>
</a>
</g>
</g>
<!-- Node1&#45;&gt;Node4 -->
<g id="edge3" class="edge">
<title>Node1&#45;&gt;Node4</title>
<path fill="none" stroke="midnightblue" d="M123.19,-238.9C118.88,-228.68 114.17,-217.53 109.38,-206.19"/>
<polygon fill="none" stroke="midnightblue" points="120.08,-240.53 127.2,-248.39 126.53,-237.81 120.08,-240.53"/>
</g>
<!-- Node5 -->
<g id="node5" class="node">
<title>Node5</title>
<g id="a_node5"><a xlink:href="class_simple___lumped___model___realization.html" target="_top" xlink:title=" ">
<polygon fill="white" stroke="black" points="153,-0.5 153,-211.5 288,-211.5 288,-0.5 153,-0.5"/>
<text text-anchor="start" x="161" y="-199.5" font-family="Helvetica,sans-Serif" font-size="10.00">Simple_Lumped_Model</text>
<text text-anchor="middle" x="220.5" y="-188.5" font-family="Helvetica,sans-Serif" font-size="10.00">_Realization</text>
<polyline fill="none" stroke="black" points="153,-181.5 288,-181.5 "/>
<text text-anchor="start" x="161" y="-169.5" font-family="Helvetica,sans-Serif" font-size="10.00">&#45; state</text>
<text text-anchor="start" x="161" y="-158.5" font-family="Helvetica,sans-Serif" font-size="10.00">&#45; fluxes</text>
<text text-anchor="start" x="161" y="-147.5" font-family="Helvetica,sans-Serif" font-size="10.00">&#45; cascade_backing_storage</text>
<text text-anchor="start" x="161" y="-136.5" font-family="Helvetica,sans-Serif" font-size="10.00">&#45; params</text>
<polyline fill="none" stroke="black" points="153,-129.5 288,-129.5 "/>
<text text-anchor="start" x="161" y="-117.5" font-family="Helvetica,sans-Serif" font-size="10.00">+ Simple_Lumped_Model</text>
<text text-anchor="start" x="161" y="-106.5" font-family="Helvetica,sans-Serif" font-size="10.00">_Realization()</text>
<text text-anchor="start" x="161" y="-95.5" font-family="Helvetica,sans-Serif" font-size="10.00">+ Simple_Lumped_Model</text>
<text text-anchor="start" x="161" y="-84.5" font-family="Helvetica,sans-Serif" font-size="10.00">_Realization()</text>
<text text-anchor="start" x="161" y="-73.5" font-family="Helvetica,sans-Serif" font-size="10.00">+ Simple_Lumped_Model</text>
<text text-anchor="start" x="161" y="-62.5" font-family="Helvetica,sans-Serif" font-size="10.00">_Realization()</text>
<text text-anchor="start" x="161" y="-51.5" font-family="Helvetica,sans-Serif" font-size="10.00">+ ~Simple_Lumped_Model</text>
<text text-anchor="start" x="161" y="-40.5" font-family="Helvetica,sans-Serif" font-size="10.00">_Realization()</text>
<text text-anchor="start" x="161" y="-29.5" font-family="Helvetica,sans-Serif" font-size="10.00">+ get_response()</text>
<text text-anchor="start" x="161" y="-18.5" font-family="Helvetica,sans-Serif" font-size="10.00">+ calc_et()</text>
<text text-anchor="start" x="161" y="-7.5" font-family="Helvetica,sans-Serif" font-size="10.00">+ add_time()</text>
</a>
</g>
</g>
<!-- Node1&#45;&gt;Node5 -->
<g id="edge4" class="edge">
<title>Node1&#45;&gt;Node5</title>
<path fill="none" stroke="midnightblue" d="M164.04,-238.99C167.71,-230.41 171.66,-221.16 175.71,-211.69"/>
<polygon fill="none" stroke="midnightblue" points="160.73,-237.81 160.02,-248.39 167.17,-240.57 160.73,-237.81"/>
</g>
<!-- Node2 -->
<g id="node2" class="node">
<title>Node2</title>
<g id="a_node2"><a xlink:href="class_h_y___catchment_realization.html" target="_top" xlink:title=" ">
<polygon fill="white" stroke="black" points="0.5,-364.5 0.5,-487.5 150.5,-487.5 150.5,-364.5 0.5,-364.5"/>
<text text-anchor="middle" x="75.5" y="-475.5" font-family="Helvetica,sans-Serif" font-size="10.00">HY_CatchmentRealization</text>
<polyline fill="none" stroke="black" points="0.5,-468.5 150.5,-468.5 "/>
<text text-anchor="start" x="8.5" y="-456.5" font-family="Helvetica,sans-Serif" font-size="10.00"># realized_catchment</text>
<text text-anchor="start" x="8.5" y="-445.5" font-family="Helvetica,sans-Serif" font-size="10.00"># id_number</text>
<text text-anchor="start" x="8.5" y="-434.5" font-family="Helvetica,sans-Serif" font-size="10.00"># id</text>
<text text-anchor="start" x="8.5" y="-423.5" font-family="Helvetica,sans-Serif" font-size="10.00"># forcing</text>
<polyline fill="none" stroke="black" points="0.5,-416.5 150.5,-416.5 "/>
<text text-anchor="start" x="8.5" y="-404.5" font-family="Helvetica,sans-Serif" font-size="10.00">+ HY_CatchmentRealization()</text>
<text text-anchor="start" x="8.5" y="-393.5" font-family="Helvetica,sans-Serif" font-size="10.00">+ HY_CatchmentRealization()</text>
<text text-anchor="start" x="8.5" y="-382.5" font-family="Helvetica,sans-Serif" font-size="10.00">+ ~HY_CatchmentRealization()</text>
<text text-anchor="start" x="8.5" y="-371.5" font-family="Helvetica,sans-Serif" font-size="10.00">+ get_response()</text>
</a>
</g>
</g>
<!-- Node2&#45;&gt;Node1 -->
<g id="edge1" class="edge">
<title>Node2&#45;&gt;Node1</title>
<path fill="none" stroke="midnightblue" d="M110.46,-355.08C115.2,-345.61 119.91,-336.18 124.23,-327.54"/>
<polygon fill="none" stroke="midnightblue" points="107.26,-353.65 105.92,-364.16 113.52,-356.78 107.26,-353.65"/>
</g>
<!-- Node3 -->
<g id="node3" class="node">
<title>Node3</title>
<g id="a_node3"><a xlink:href="class_g_m___object.html" target="_top" xlink:title=" ">
<polygon fill="white" stroke="black" points="168.5,-392 168.5,-460 254.5,-460 254.5,-392 168.5,-392"/>
<text text-anchor="middle" x="211.5" y="-448" font-family="Helvetica,sans-Serif" font-size="10.00">GM_Object</text>
<polyline fill="none" stroke="black" points="168.5,-441 254.5,-441 "/>
<text text-anchor="middle" x="211.5" y="-429" font-family="Helvetica,sans-Serif" font-size="10.00"> </text>
<polyline fill="none" stroke="black" points="168.5,-422 254.5,-422 "/>
<text text-anchor="start" x="176.5" y="-410" font-family="Helvetica,sans-Serif" font-size="10.00">+ GM_Object()</text>
<text text-anchor="start" x="176.5" y="-399" font-family="Helvetica,sans-Serif" font-size="10.00">+ ~GM_Object()</text>
</a>
</g>
</g>
<!-- Node3&#45;&gt;Node1 -->
<g id="edge2" class="edge">
<title>Node3&#45;&gt;Node1</title>
<path fill="none" stroke="midnightblue" d="M190.16,-382.32C181.42,-364.84 171.38,-344.76 162.85,-327.71"/>
<polygon fill="none" stroke="midnightblue" points="187.26,-384.35 194.87,-391.73 193.52,-381.22 187.26,-384.35"/>
</g>
</g>
</svg>
